<svg id="visual" viewBox="0 0 900 150" width="900" height="150" xmlns="http://www.w3.org/2000/svg" xmlns:xlink="http://www.w3.org/1999/xlink" version="1.1"><rect x="0" y="0" width="900" height="150" fill="#212121"></rect><path d="M0 124L11.5 122.2C23 120.3 46 116.7 69 119.3C92 122 115 131 138.2 134C161.3 137 184.7 134 207.8 131.3C231 128.7 254 126.3 277 124C300 121.7 323 119.3 346 119.8C369 120.3 392 123.7 415.2 123.2C438.3 122.7 461.7 118.3 484.8 117.5C508 116.7 531 119.3 554 123.5C577 127.7 600 133.3 623 133C646 132.7 669 126.3 692.2 125.3C715.3 124.3 738.7 128.7 761.8 126.8C785 125 808 117 831 115C854 113 877 117 888.5 119L900 121L900 0L888.5 0C877 0 854 0 831 0C808 0 785 0 761.8 0C738.7 0 715.3 0 692.2 0C669 0 646 0 623 0C600 0 577 0 554 0C531 0 508 0 484.8 0C461.7 0 438.3 0 415.2 0C392 0 369 0 346 0C323 0 300 0 277 0C254 0 231 0 207.8 0C184.7 0 161.3 0 138.2 0C115 0 92 0 69 0C46 0 23 0 11.5 0L0 0Z" fill="#1e1527"></path><path d="M0 104L11.5 101.2C23 98.3 46 92.7 69 91.3C92 90 115 93 138.2 95.2C161.3 97.3 184.7 98.7 207.8 102.7C231 106.7 254 113.3 277 112.3C300 111.3 323 102.7 346 98.3C369 94 392 94 415.2 94.2C438.3 94.3 461.7 94.7 484.8 96.7C508 98.7 531 102.3 554 101.2C577 100 600 94 623 94C646 94 669 100 692.2 101.2C715.3 102.3 738.7 98.7 761.8 98.2C785 97.7 808 100.3 831 103.5C854 106.7 877 110.3 888.5 112.2L900 114L900 0L888.5 0C877 0 854 0 831 0C808 0 785 0 761.8 0C738.7 0 715.3 0 692.2 0C669 0 646 0 623 0C600 0 577 0 554 0C531 0 508 0 484.8 0C461.7 0 438.3 0 415.2 0C392 0 369 0 346 0C323 0 300 0 277 0C254 0 231 0 207.8 0C184.7 0 161.3 0 138.2 0C115 0 92 0 69 0C46 0 23 0 11.5 0L0 0Z" fill="#291a3f"></path><path d="M0 80L11.5 78.7C23 77.3 46 74.7 69 73.8C92 73 115 74 138.2 75C161.3 76 184.7 77 207.8 76.3C231 75.7 254 73.3 277 74.2C300 75 323 79 346 81.3C369 83.7 392 84.3 415.2 84.5C438.3 84.7 461.7 84.3 484.8 86.2C508 88 531 92 554 90.8C577 89.7 600 83.3 623 80.3C646 77.3 669 77.7 692.2 79C715.3 80.3 738.7 82.7 761.8 80.7C785 78.7 808 72.3 831 71.8C854 71.3 877 76.7 888.5 79.3L900 82L900 0L888.5 0C877 0 854 0 831 0C808 0 785 0 761.8 0C738.7 0 715.3 0 692.2 0C669 0 646 0 623 0C600 0 577 0 554 0C531 0 508 0 484.8 0C461.7 0 438.3 0 415.2 0C392 0 369 0 346 0C323 0 300 0 277 0C254 0 231 0 207.8 0C184.7 0 161.3 0 138.2 0C115 0 92 0 69 0C46 0 23 0 11.5 0L0 0Z" fill="#312059"></path><path d="M0 76L11.5 71.8C23 67.7 46 59.3 69 57.8C92 56.3 115 61.7 138.2 63.3C161.3 65 184.7 63 207.8 61.8C231 60.7 254 60.3 277 61.5C300 62.7 323 65.3 346 66.3C369 67.3 392 66.7 415.2 67.2C438.3 67.7 461.7 69.3 484.8 70.7C508 72 531 73 554 72.2C577 71.3 600 68.7 623 67.8C646 67 669 68 692.2 69.5C715.3 71 738.7 73 761.8 73.3C785 73.7 808 72.3 831 71C854 69.7 877 68.3 888.5 67.7L900 67L900 0L888.5 0C877 0 854 0 831 0C808 0 785 0 761.8 0C738.7 0 715.3 0 692.2 0C669 0 646 0 623 0C600 0 577 0 554 0C531 0 508 0 484.8 0C461.7 0 438.3 0 415.2 0C392 0 369 0 346 0C323 0 300 0 277 0C254 0 231 0 207.8 0C184.7 0 161.3 0 138.2 0C115 0 92 0 69 0C46 0 23 0 11.5 0L0 0Z" fill="#362775"></path><path d="M0 48L11.5 44.5C23 41 46 34 69 34.5C92 35 115 43 138.2 43.5C161.3 44 184.7 37 207.8 32.8C231 28.7 254 27.3 277 27.3C300 27.3 323 28.7 346 32.3C369 36 392 42 415.2 44C438.3 46 461.7 44 484.8 40.5C508 37 531 32 554 29.5C577 27 600 27 623 29.8C646 32.7 669 38.3 692.2 43.2C715.3 48 738.7 52 761.8 51.7C785 51.3 808 46.7 831 45.2C854 43.7 877 45.3 888.5 46.2L900 47L900 0L888.5 0C877 0 854 0 831 0C808 0 785 0 761.8 0C738.7 0 715.3 0 692.2 0C669 0 646 0 623 0C600 0 577 0 554 0C531 0 508 0 484.8 0C461.7 0 438.3 0 415.2 0C392 0 369 0 346 0C323 0 300 0 277 0C254 0 231 0 207.8 0C184.7 0 161.3 0 138.2 0C115 0 92 0 69 0C46 0 23 0 11.5 0L0 0Z" fill="#352f93"></path><path d="M0 32L11.5 27.8C23 23.7 46 15.3 69 13.5C92 11.7 115 16.3 138.2 19.5C161.3 22.7 184.7 24.3 207.8 24.7C231 25 254 24 277 21.7C300 19.3 323 15.7 346 17C369 18.3 392 24.7 415.2 25.7C438.3 26.7 461.7 22.3 484.8 22.8C508 23.3 531 28.7 554 28C577 27.3 600 20.7 623 16C646 11.3 669 8.7 692.2 9.8C715.3 11 738.7 16 761.8 17.7C785 19.3 808 17.7 831 17.7C854 17.7 877 19.3 888.5 20.2L900 21L900 0L888.5 0C877 0 854 0 831 0C808 0 785 0 761.8 0C738.7 0 715.3 0 692.2 0C669 0 646 0 623 0C600 0 577 0 554 0C531 0 508 0 484.8 0C461.7 0 438.3 0 415.2 0C392 0 369 0 346 0C323 0 300 0 277 0C254 0 231 0 207.8 0C184.7 0 161.3 0 138.2 0C115 0 92 0 69 0C46 0 23 0 11.5 0L0 0Z" fill="#2b38b3"></path></svg>