<svg id="visual" viewBox="0 0 900 300" width="900" height="300" xmlns="http://www.w3.org/2000/svg" xmlns:xlink="http://www.w3.org/1999/xlink" version="1.1"><rect x="0" y="0" width="900" height="300" fill="#001220"></rect><path d="M0 251L15 245.3C30 239.7 60 228.3 90 225.5C120 222.7 150 228.3 180 229.5C210 230.7 240 227.3 270 228.2C300 229 330 234 360 237.5C390 241 420 243 450 237.7C480 232.3 510 219.7 540 217C570 214.3 600 221.7 630 227.2C660 232.7 690 236.3 720 238.7C750 241 780 242 810 234.8C840 227.7 870 212.3 885 204.7L900 197L900 0L885 0C870 0 840 0 810 0C780 0 750 0 720 0C690 0 660 0 630 0C600 0 570 0 540 0C510 0 480 0 450 0C420 0 390 0 360 0C330 0 300 0 270 0C240 0 210 0 180 0C150 0 120 0 90 0C60 0 30 0 15 0L0 0Z" fill="#000094"></path><path d="M0 167L15 167.3C30 167.7 60 168.3 90 171.2C120 174 150 179 180 187.2C210 195.3 240 206.7 270 211.8C300 217 330 216 360 214.7C390 213.3 420 211.7 450 211.2C480 210.7 510 211.3 540 211.7C570 212 600 212 630 204.8C660 197.7 690 183.3 720 177.5C750 171.7 780 174.3 810 176.7C840 179 870 181 885 182L900 183L900 0L885 0C870 0 840 0 810 0C780 0 750 0 720 0C690 0 660 0 630 0C600 0 570 0 540 0C510 0 480 0 450 0C420 0 390 0 360 0C330 0 300 0 270 0C240 0 210 0 180 0C150 0 120 0 90 0C60 0 30 0 15 0L0 0Z" fill="#1c0199"></path><path d="M0 183L15 183.8C30 184.7 60 186.3 90 183.7C120 181 150 174 180 174C210 174 240 181 270 183.8C300 186.7 330 185.3 360 185.3C390 185.3 420 186.7 450 187.5C480 188.3 510 188.7 540 182C570 175.3 600 161.7 630 157.3C660 153 690 158 720 165C750 172 780 181 810 177.7C840 174.3 870 158.7 885 150.8L900 143L900 0L885 0C870 0 840 0 810 0C780 0 750 0 720 0C690 0 660 0 630 0C600 0 570 0 540 0C510 0 480 0 450 0C420 0 390 0 360 0C330 0 300 0 270 0C240 0 210 0 180 0C150 0 120 0 90 0C60 0 30 0 15 0L0 0Z" fill="#2c039e"></path><path d="M0 119L15 120.5C30 122 60 125 90 124.8C120 124.7 150 121.3 180 121.2C210 121 240 124 270 124.5C300 125 330 123 360 128.8C390 134.7 420 148.3 450 153.7C480 159 510 156 540 149.3C570 142.7 600 132.3 630 130C660 127.7 690 133.3 720 137.7C750 142 780 145 810 147.2C840 149.3 870 150.7 885 151.3L900 152L900 0L885 0C870 0 840 0 810 0C780 0 750 0 720 0C690 0 660 0 630 0C600 0 570 0 540 0C510 0 480 0 450 0C420 0 390 0 360 0C330 0 300 0 270 0C240 0 210 0 180 0C150 0 120 0 90 0C60 0 30 0 15 0L0 0Z" fill="#3805a3"></path><path d="M0 103L15 101.5C30 100 60 97 90 99.7C120 102.3 150 110.7 180 115C210 119.3 240 119.7 270 120.5C300 121.3 330 122.7 360 118.3C390 114 420 104 450 101.7C480 99.3 510 104.7 540 105.5C570 106.3 600 102.7 630 105C660 107.3 690 115.7 720 121.3C750 127 780 130 810 127C840 124 870 115 885 110.5L900 106L900 0L885 0C870 0 840 0 810 0C780 0 750 0 720 0C690 0 660 0 630 0C600 0 570 0 540 0C510 0 480 0 450 0C420 0 390 0 360 0C330 0 300 0 270 0C240 0 210 0 180 0C150 0 120 0 90 0C60 0 30 0 15 0L0 0Z" fill="#4307a7"></path><path d="M0 103L15 100.3C30 97.7 60 92.3 90 92.3C120 92.3 150 97.7 180 99.7C210 101.7 240 100.3 270 98.8C300 97.3 330 95.7 360 90.8C390 86 420 78 450 75.3C480 72.7 510 75.3 540 76.2C570 77 600 76 630 79.8C660 83.7 690 92.3 720 92.5C750 92.7 780 84.3 810 78.7C840 73 870 70 885 68.5L900 67L900 0L885 0C870 0 840 0 810 0C780 0 750 0 720 0C690 0 660 0 630 0C600 0 570 0 540 0C510 0 480 0 450 0C420 0 390 0 360 0C330 0 300 0 270 0C240 0 210 0 180 0C150 0 120 0 90 0C60 0 30 0 15 0L0 0Z" fill="#4e0aac"></path><path d="M0 55L15 58.3C30 61.7 60 68.3 90 67.3C120 66.3 150 57.7 180 53.8C210 50 240 51 270 50.3C300 49.7 330 47.3 360 51C390 54.7 420 64.3 450 65C480 65.7 510 57.3 540 56.3C570 55.3 600 61.7 630 65.8C660 70 690 72 720 72C750 72 780 70 810 69.5C840 69 870 70 885 70.5L900 71L900 0L885 0C870 0 840 0 810 0C780 0 750 0 720 0C690 0 660 0 630 0C600 0 570 0 540 0C510 0 480 0 450 0C420 0 390 0 360 0C330 0 300 0 270 0C240 0 210 0 180 0C150 0 120 0 90 0C60 0 30 0 15 0L0 0Z" fill="#580eb1"></path><path d="M0 26L15 28.7C30 31.3 60 36.7 90 38.7C120 40.7 150 39.3 180 36.7C210 34 240 30 270 28C300 26 330 26 360 28C390 30 420 34 450 34C480 34 510 30 540 28.5C570 27 600 28 630 30.7C660 33.3 690 37.7 720 37C750 36.3 780 30.7 810 26.8C840 23 870 21 885 20L900 19L900 0L885 0C870 0 840 0 810 0C780 0 750 0 720 0C690 0 660 0 630 0C600 0 570 0 540 0C510 0 480 0 450 0C420 0 390 0 360 0C330 0 300 0 270 0C240 0 210 0 180 0C150 0 120 0 90 0C60 0 30 0 15 0L0 0Z" fill="#6111b6"></path></svg>