<svg id="visual" viewBox="0 0 900 400" width="900" height="400" xmlns="http://www.w3.org/2000/svg" xmlns:xlink="http://www.w3.org/1999/xlink" version="1.1"><rect x="0" y="0" width="900" height="400" fill="#001220"></rect><path d="M0 279L11.5 281.7C23 284.3 46 289.7 69 293C92 296.3 115 297.7 138.2 289C161.3 280.3 184.7 261.7 207.8 259.3C231 257 254 271 277 274C300 277 323 269 346 253C369 237 392 213 415.2 220.5C438.3 228 461.7 267 484.8 261.2C508 255.3 531 204.7 554 179.2C577 153.7 600 153.3 623 170C646 186.7 669 220.3 692.2 235.2C715.3 250 738.7 246 761.8 250C785 254 808 266 831 274C854 282 877 286 888.5 288L900 290L900 0L888.5 0C877 0 854 0 831 0C808 0 785 0 761.8 0C738.7 0 715.3 0 692.2 0C669 0 646 0 623 0C600 0 577 0 554 0C531 0 508 0 484.8 0C461.7 0 438.3 0 415.2 0C392 0 369 0 346 0C323 0 300 0 277 0C254 0 231 0 207.8 0C184.7 0 161.3 0 138.2 0C115 0 92 0 69 0C46 0 23 0 11.5 0L0 0Z" fill="#484fa6"></path><path d="M0 201L11.5 204.3C23 207.7 46 214.3 69 205C92 195.7 115 170.3 138.2 164.2C161.3 158 184.7 171 207.8 188.5C231 206 254 228 277 220.2C300 212.3 323 174.7 346 152.3C369 130 392 123 415.2 137.7C438.3 152.3 461.7 188.7 484.8 209C508 229.3 531 233.7 554 237.5C577 241.3 600 244.7 623 230.2C646 215.7 669 183.3 692.2 159C715.3 134.7 738.7 118.3 761.8 119.2C785 120 808 138 831 162.8C854 187.7 877 219.3 888.5 235.2L900 251L900 0L888.5 0C877 0 854 0 831 0C808 0 785 0 761.8 0C738.7 0 715.3 0 692.2 0C669 0 646 0 623 0C600 0 577 0 554 0C531 0 508 0 484.8 0C461.7 0 438.3 0 415.2 0C392 0 369 0 346 0C323 0 300 0 277 0C254 0 231 0 207.8 0C184.7 0 161.3 0 138.2 0C115 0 92 0 69 0C46 0 23 0 11.5 0L0 0Z" fill="#752b73"></path><path d="M0 69L11.5 80.8C23 92.7 46 116.3 69 132.3C92 148.3 115 156.7 138.2 153.3C161.3 150 184.7 135 207.8 129.5C231 124 254 128 277 133.8C300 139.7 323 147.3 346 141.3C369 135.3 392 115.7 415.2 105.2C438.3 94.7 461.7 93.3 484.8 94.5C508 95.7 531 99.3 554 109.5C577 119.7 600 136.3 623 142.3C646 148.3 669 143.7 692.2 136C715.3 128.3 738.7 117.7 761.8 110.3C785 103 808 99 831 111.8C854 124.7 877 154.3 888.5 169.2L900 184L900 0L888.5 0C877 0 854 0 831 0C808 0 785 0 761.8 0C738.7 0 715.3 0 692.2 0C669 0 646 0 623 0C600 0 577 0 554 0C531 0 508 0 484.8 0C461.7 0 438.3 0 415.2 0C392 0 369 0 346 0C323 0 300 0 277 0C254 0 231 0 207.8 0C184.7 0 161.3 0 138.2 0C115 0 92 0 69 0C46 0 23 0 11.5 0L0 0Z" fill="#770b3c"></path><path d="M0 33L11.5 34.3C23 35.7 46 38.3 69 53.8C92 69.3 115 97.7 138.2 101.5C161.3 105.3 184.7 84.7 207.8 69.8C231 55 254 46 277 49.7C300 53.3 323 69.7 346 72.2C369 74.7 392 63.3 415.2 59.3C438.3 55.3 461.7 58.7 484.8 59C508 59.3 531 56.7 554 63.3C577 70 600 86 623 97.3C646 108.7 669 115.3 692.2 112.5C715.3 109.7 738.7 97.3 761.8 91.2C785 85 808 85 831 91.8C854 98.7 877 112.3 888.5 119.2L900 126L900 0L888.5 0C877 0 854 0 831 0C808 0 785 0 761.8 0C738.7 0 715.3 0 692.2 0C669 0 646 0 623 0C600 0 577 0 554 0C531 0 508 0 484.8 0C461.7 0 438.3 0 415.2 0C392 0 369 0 346 0C323 0 300 0 277 0C254 0 231 0 207.8 0C184.7 0 161.3 0 138.2 0C115 0 92 0 69 0C46 0 23 0 11.5 0L0 0Z" fill="#5f0d0d"></path></svg>